<svg width="112" height="20" viewBox="0 0 112 20" fill="none" xmlns="http://www.w3.org/2000/svg">
<path d="M1.20752 19C1.07419 19 0.949186 18.95 0.83252 18.85C0.73252 18.7333 0.68252 18.6083 0.68252 18.475C0.68252 18.3917 0.690853 18.3167 0.70752 18.25L6.58252 2.2C6.63252 2.01667 6.73252 1.85833 6.88252 1.725C7.04919 1.575 7.27419 1.5 7.55752 1.5H11.2575C11.5409 1.5 11.7575 1.575 11.9075 1.725C12.0742 1.85833 12.1825 2.01667 12.2325 2.2L18.0825 18.25C18.1159 18.3167 18.1325 18.3917 18.1325 18.475C18.1325 18.6083 18.0742 18.7333 17.9575 18.85C17.8575 18.95 17.7325 19 17.5825 19H14.5075C14.2575 19 14.0659 18.9417 13.9325 18.825C13.8159 18.6917 13.7409 18.575 13.7075 18.475L12.7325 15.925H6.05752L5.10752 18.475C5.07419 18.575 4.99919 18.6917 4.88252 18.825C4.76585 18.9417 4.56585 19 4.28252 19H1.20752ZM7.08252 12.325H11.7325L9.38252 5.725L7.08252 12.325ZM20.453 19C20.2697 19 20.1197 18.9417 20.003 18.825C19.8864 18.7083 19.828 18.5583 19.828 18.375V6.625C19.828 6.44167 19.8864 6.29167 20.003 6.175C20.1197 6.05833 20.2697 6 20.453 6H23.403C23.5697 6 23.7114 6.05833 23.828 6.175C23.9614 6.29167 24.028 6.44167 24.028 6.625V18.375C24.028 18.5583 23.9614 18.7083 23.828 18.825C23.7114 18.9417 23.5697 19 23.403 19H20.453ZM20.428 4.125C20.2447 4.125 20.0947 4.06667 19.978 3.95C19.8614 3.83333 19.803 3.68333 19.803 3.5V1.275C19.803 1.09167 19.8614 0.941666 19.978 0.824999C20.0947 0.691666 20.2447 0.625 20.428 0.625H23.403C23.5864 0.625 23.7364 0.691666 23.853 0.824999C23.9864 0.941666 24.053 1.09167 24.053 1.275V3.5C24.053 3.68333 23.9864 3.83333 23.853 3.95C23.7364 4.06667 23.5864 4.125 23.403 4.125H20.428Z" fill="#7A61FF"/>
<path d="M27.8569 19C27.6903 19 27.5403 18.9417 27.4069 18.825C27.2903 18.7083 27.2319 18.5583 27.2319 18.375V2.125C27.2319 1.94167 27.2903 1.79167 27.4069 1.675C27.5403 1.55833 27.6903 1.5 27.8569 1.5H30.5569C30.8236 1.5 31.0236 1.575 31.1569 1.725C31.3069 1.85833 31.3986 1.96667 31.4319 2.05L35.8319 9.95L40.2319 2.05C40.2819 1.96667 40.3653 1.85833 40.4819 1.725C40.6153 1.575 40.8236 1.5 41.1069 1.5H43.7819C43.9653 1.5 44.1153 1.55833 44.2319 1.675C44.3653 1.79167 44.4319 1.94167 44.4319 2.125V18.375C44.4319 18.5583 44.3653 18.7083 44.2319 18.825C44.1153 18.9417 43.9653 19 43.7819 19H40.8069C40.6236 19 40.4653 18.9417 40.3319 18.825C40.2153 18.7083 40.1569 18.5583 40.1569 18.375V9L37.3319 14.225C37.2653 14.375 37.1653 14.5083 37.0319 14.625C36.8986 14.7417 36.7153 14.8 36.4819 14.8H35.1819C34.9486 14.8 34.7653 14.7417 34.6319 14.625C34.4986 14.5083 34.3903 14.375 34.3069 14.225L31.4819 9V18.375C31.4819 18.5583 31.4236 18.7083 31.3069 18.825C31.1903 18.9417 31.0403 19 30.8569 19H27.8569ZM53.6356 19.25C51.669 19.25 50.1023 18.7167 48.9356 17.65C47.769 16.5833 47.1606 15 47.1106 12.9C47.1106 12.7833 47.1106 12.6333 47.1106 12.45C47.1106 12.2667 47.1106 12.125 47.1106 12.025C47.1606 10.7083 47.4523 9.58333 47.9856 8.65C48.5356 7.7 49.2856 6.98333 50.2356 6.5C51.2023 6 52.3273 5.75 53.6106 5.75C55.0773 5.75 56.2856 6.04167 57.2356 6.625C58.2023 7.20833 58.9273 8 59.4106 9C59.894 10 60.1356 11.1417 60.1356 12.425V13.025C60.1356 13.2083 60.069 13.3583 59.9356 13.475C59.819 13.5917 59.6773 13.65 59.5106 13.65H51.5106C51.5106 13.6667 51.5106 13.6917 51.5106 13.725C51.5106 13.7583 51.5106 13.7917 51.5106 13.825C51.5273 14.3083 51.6106 14.75 51.7606 15.15C51.9106 15.55 52.144 15.8667 52.4606 16.1C52.7773 16.3333 53.1606 16.45 53.6106 16.45C53.944 16.45 54.219 16.4 54.4356 16.3C54.669 16.1833 54.8606 16.0583 55.0106 15.925C55.1606 15.775 55.2773 15.65 55.3606 15.55C55.5106 15.3833 55.6273 15.2833 55.7106 15.25C55.8106 15.2 55.9606 15.175 56.1606 15.175H59.2606C59.4273 15.175 59.5606 15.225 59.6606 15.325C59.7773 15.4083 59.8273 15.5333 59.8106 15.7C59.794 15.9833 59.6523 16.325 59.3856 16.725C59.119 17.125 58.7273 17.525 58.2106 17.925C57.7106 18.3083 57.0773 18.625 56.3106 18.875C55.544 19.125 54.6523 19.25 53.6356 19.25ZM51.5106 11.175H55.7356V11.125C55.7356 10.5917 55.6523 10.125 55.4856 9.725C55.3356 9.325 55.094 9.01667 54.7606 8.8C54.444 8.58333 54.0606 8.475 53.6106 8.475C53.1606 8.475 52.7773 8.58333 52.4606 8.8C52.1606 9.01667 51.9273 9.325 51.7606 9.725C51.594 10.125 51.5106 10.5917 51.5106 11.125V11.175ZM63.1044 19C62.9211 19 62.7711 18.9417 62.6544 18.825C62.5377 18.7083 62.4794 18.5583 62.4794 18.375V6.625C62.4794 6.44167 62.5377 6.29167 62.6544 6.175C62.7711 6.05833 62.9211 6 63.1044 6H65.8294C66.0127 6 66.1627 6.05833 66.2794 6.175C66.3961 6.29167 66.4544 6.44167 66.4544 6.625V7.475C66.7877 7.025 67.2544 6.63333 67.8544 6.3C68.4544 5.95 69.1627 5.76667 69.9794 5.75C71.8961 5.71667 73.2127 6.44167 73.9294 7.925C74.3127 7.29167 74.8627 6.775 75.5794 6.375C76.2961 5.95833 77.0794 5.75 77.9294 5.75C78.7961 5.75 79.5711 5.95 80.2544 6.35C80.9544 6.73333 81.5127 7.33333 81.9294 8.15C82.3461 8.95 82.5544 9.99167 82.5544 11.275V18.375C82.5544 18.5583 82.4877 18.7083 82.3544 18.825C82.2377 18.9417 82.0961 19 81.9294 19H79.0294C78.8461 19 78.6877 18.9417 78.5544 18.825C78.4377 18.7083 78.3794 18.5583 78.3794 18.375V11.45C78.3794 10.8667 78.2961 10.4083 78.1294 10.075C77.9627 9.725 77.7377 9.475 77.4544 9.325C77.1711 9.175 76.8461 9.1 76.4794 9.1C76.1794 9.1 75.8794 9.175 75.5794 9.325C75.2961 9.475 75.0627 9.725 74.8794 10.075C74.7127 10.4083 74.6294 10.8667 74.6294 11.45V18.375C74.6294 18.5583 74.5711 18.7083 74.4544 18.825C74.3377 18.9417 74.1877 19 74.0044 19H71.1044C70.9211 19 70.7711 18.9417 70.6544 18.825C70.5377 18.7083 70.4794 18.5583 70.4794 18.375V11.45C70.4794 10.8667 70.3877 10.4083 70.2044 10.075C70.0211 9.725 69.7877 9.475 69.5044 9.325C69.2211 9.175 68.9044 9.1 68.5544 9.1C68.2544 9.1 67.9544 9.175 67.6544 9.325C67.3711 9.475 67.1377 9.725 66.9544 10.075C66.7877 10.4083 66.7044 10.8583 66.7044 11.425V18.375C66.7044 18.5583 66.6377 18.7083 66.5044 18.825C66.3877 18.9417 66.2377 19 66.0544 19H63.1044ZM91.3554 19.25C89.3887 19.25 87.822 18.7167 86.6554 17.65C85.4887 16.5833 84.8804 15 84.8304 12.9C84.8304 12.7833 84.8304 12.6333 84.8304 12.45C84.8304 12.2667 84.8304 12.125 84.8304 12.025C84.8804 10.7083 85.172 9.58333 85.7054 8.65C86.2554 7.7 87.0054 6.98333 87.9554 6.5C88.922 6 90.047 5.75 91.3304 5.75C92.797 5.75 94.0054 6.04167 94.9554 6.625C95.922 7.20833 96.647 8 97.1304 9C97.6137 10 97.8554 11.1417 97.8554 12.425V13.025C97.8554 13.2083 97.7887 13.3583 97.6554 13.475C97.5387 13.5917 97.397 13.65 97.2304 13.65H89.2304C89.2304 13.6667 89.2304 13.6917 89.2304 13.725C89.2304 13.7583 89.2304 13.7917 89.2304 13.825C89.247 14.3083 89.3304 14.75 89.4804 15.15C89.6304 15.55 89.8637 15.8667 90.1804 16.1C90.497 16.3333 90.8804 16.45 91.3304 16.45C91.6637 16.45 91.9387 16.4 92.1554 16.3C92.3887 16.1833 92.5804 16.0583 92.7304 15.925C92.8804 15.775 92.997 15.65 93.0804 15.55C93.2304 15.3833 93.347 15.2833 93.4304 15.25C93.5304 15.2 93.6804 15.175 93.8804 15.175H96.9804C97.147 15.175 97.2804 15.225 97.3804 15.325C97.497 15.4083 97.547 15.5333 97.5304 15.7C97.5137 15.9833 97.372 16.325 97.1054 16.725C96.8387 17.125 96.447 17.525 95.9304 17.925C95.4304 18.3083 94.797 18.625 94.0304 18.875C93.2637 19.125 92.372 19.25 91.3554 19.25ZM89.2304 11.175H93.4554V11.125C93.4554 10.5917 93.372 10.125 93.2054 9.725C93.0554 9.325 92.8137 9.01667 92.4804 8.8C92.1637 8.58333 91.7804 8.475 91.3304 8.475C90.8804 8.475 90.497 8.58333 90.1804 8.8C89.8804 9.01667 89.647 9.325 89.4804 9.725C89.3137 10.125 89.2304 10.5917 89.2304 11.125V11.175ZM105.549 19.25C104.466 19.25 103.541 19.1333 102.774 18.9C102.024 18.65 101.407 18.35 100.924 18C100.457 17.65 100.107 17.2917 99.8741 16.925C99.6408 16.5417 99.5158 16.2167 99.4991 15.95C99.4825 15.7667 99.5408 15.6167 99.6741 15.5C99.8075 15.3667 99.9491 15.3 100.099 15.3H102.949C102.999 15.3 103.041 15.3083 103.074 15.325C103.107 15.3417 103.157 15.375 103.224 15.425C103.441 15.5417 103.657 15.6917 103.874 15.875C104.091 16.0417 104.341 16.1917 104.624 16.325C104.907 16.4583 105.249 16.525 105.649 16.525C106.116 16.525 106.507 16.4333 106.824 16.25C107.141 16.0667 107.299 15.7917 107.299 15.425C107.299 15.1583 107.224 14.9417 107.074 14.775C106.924 14.5917 106.616 14.4167 106.149 14.25C105.699 14.0833 105.016 13.9167 104.099 13.75C103.232 13.55 102.474 13.2917 101.824 12.975C101.174 12.6417 100.674 12.2167 100.324 11.7C99.9741 11.1667 99.7991 10.525 99.7991 9.775C99.7991 9.10833 100.016 8.46667 100.449 7.85C100.882 7.23333 101.516 6.73333 102.349 6.35C103.182 5.95 104.207 5.75 105.424 5.75C106.391 5.75 107.224 5.86667 107.924 6.1C108.641 6.31667 109.241 6.6 109.724 6.95C110.224 7.3 110.599 7.65833 110.849 8.025C111.099 8.39167 111.232 8.725 111.249 9.025C111.266 9.19167 111.216 9.34167 111.099 9.475C110.982 9.59167 110.849 9.65 110.699 9.65H108.099C108.032 9.65 107.966 9.64167 107.899 9.625C107.832 9.59167 107.774 9.55833 107.724 9.525C107.524 9.425 107.324 9.29167 107.124 9.125C106.924 8.95833 106.691 8.80833 106.424 8.675C106.157 8.54167 105.824 8.475 105.424 8.475C104.974 8.475 104.624 8.575 104.374 8.775C104.124 8.975 103.999 9.23333 103.999 9.55C103.999 9.76667 104.066 9.96667 104.199 10.15C104.349 10.3333 104.641 10.5 105.074 10.65C105.524 10.8 106.216 10.9667 107.149 11.15C108.299 11.3333 109.216 11.6333 109.899 12.05C110.582 12.45 111.066 12.925 111.349 13.475C111.632 14.0083 111.774 14.575 111.774 15.175C111.774 15.975 111.532 16.6833 111.049 17.3C110.582 17.9167 109.882 18.4 108.949 18.75C108.016 19.0833 106.882 19.25 105.549 19.25Z" fill="white"/>
</svg>
